# xmcd
#
# Track frame offsets:
#  150
#  24031
#  27606
#  42676
#  70157
#  86809
#  108695
#  121243
#  132193
#  154383
#  161469
#  178243
#  198752
#  223141
#  240239
#  256113
#  261899
#  299762
#  322581
#
# Disc length: 4452 seconds
#
# Revision: 0
# Processed by: cddbd v1.5.1PL2 Copyright (c) Steve Scherf et al.
# Submitted via: Collectorz.com_Music_Collector 6.11
#
DISCID=13116213
DTITLE=Robert Earl Keen - Kgsr 9th Anniversary, Austin - 3-12-1999
DYEAR=1999
DGENRE=Alt Country
TTITLE0=I'll Go Downtown
TTITLE1=Band Intros
TTITLE2=Feelin' Good Again
TTITLE3=Gringo Honeymoon
TTITLE4=Whenever Kindness Fails
TTITLE5=Shedes Of Gray
TTITLE6=Amarillo Highway
TTITLE7=That Buckin' Song
TTITLE8=I'm Going To Town
TTITLE9=Intro To Dddfd
TTITLE10=Ding Dong Daddy From Dumas
TTITLE11=Down That Dusty Trail
TTITLE12=Oh Rosie
TTITLE13=New Life In Old Mexico
TTITLE14=The Coming Home Of The Son And Brother
TTITLE15=Thanks
TTITLE16=Dreadful Selfish Crime
TTITLE17=Merry Christmas From The Family
TTITLE18=Feliz Navidad
EXTD=
EXTT0=
EXTT1=
EXTT2=
EXTT3=
EXTT4=
EXTT5=
EXTT6=
EXTT7=
EXTT8=
EXTT9=
EXTT10=
EXTT11=
EXTT12=
EXTT13=
EXTT14=
EXTT15=
EXTT16=
EXTT17=
EXTT18=
PLAYORDER=
